<?xml version="1.0" encoding="UTF-8"?>
<svg xmlns="http://www.w3.org/2000/svg" id="Outline" viewBox="0 0 512 512" width="512" height="512"><path d="M178.97,195.724A160.1,160.1,0,0,0,256,496q1.1,0,2.192-.015a160.025,160.025,0,0,0,74.9-300.223A56.115,56.115,0,0,1,304,146.654v-36.03A23.994,23.994,0,0,0,299.034,64.2L311.59,26.53A8,8,0,0,0,304,16H208a8,8,0,0,0-7.589,10.53L212.967,64.2A23.994,23.994,0,0,0,208,110.624v36.031A56.021,56.021,0,0,1,178.97,195.724Zm146.408,14.051a144,144,0,1,1-138.694-.034A72.018,72.018,0,0,0,224,146.655V112h64v34.654A72.113,72.113,0,0,0,325.378,209.775ZM292.9,32,282.233,64H229.766L219.1,32ZM216,80h80a8,8,0,0,1,0,16H216a8,8,0,0,1,0-16Z"/><path d="M254.027,271.53a71.815,71.815,0,0,0-60.811-4.262l-52.7,20.266a8.006,8.006,0,0,0-4.891,4.827A127.538,127.538,0,0,0,128,335.277c-.386,69.859,56.1,127.6,125.918,128.706q1.052.017,2.1.017a128.023,128.023,0,0,0,110.32-192.9,8,8,0,0,0-10.2-3.218l-34.084,15.492a56.219,56.219,0,0,1-50.368-2.027Zm74.65,26.406L356,285.516A112.022,112.022,0,0,1,254.175,447.985c-61.088-.971-110.511-51.492-110.173-112.62a111.7,111.7,0,0,1,5.5-34.14L198.959,282.2a55.867,55.867,0,0,1,47.3,3.316l17.66,9.811A72.3,72.3,0,0,0,328.677,297.936Z"/><circle cx="208" cy="320" r="8"/><circle cx="232" cy="344" r="8"/><circle cx="208" cy="368" r="8"/><path d="M424,232a8,8,0,0,0,16,0c0-40.52,32.166-47.856,33.608-48.163a8.006,8.006,0,0,0,0-15.673C472.241,167.873,440,160.566,440,120a8,8,0,0,0-16,0c0,40.566-32.241,47.873-33.569,48.155a8.006,8.006,0,0,0-.044,15.681C391.759,184.127,424,191.434,424,232Zm-7-59.753a58.714,58.714,0,0,0,15-17.965,58.714,58.714,0,0,0,15,17.965A61.156,61.156,0,0,0,452.244,176,61.156,61.156,0,0,0,447,179.753a58.714,58.714,0,0,0-15,17.965,58.714,58.714,0,0,0-15-17.965A61.156,61.156,0,0,0,411.756,176,61.156,61.156,0,0,0,417,172.247Z"/><path d="M121.614,88.164C120.241,87.873,88,80.566,88,40a8,8,0,0,0-16,0c0,40.566-32.241,47.873-33.569,48.155a8.006,8.006,0,0,0-.045,15.681C39.759,104.127,72,111.434,72,152a8,8,0,0,0,16,0c0-40.52,32.167-47.856,33.609-48.163a8.006,8.006,0,0,0,.005-15.673ZM95,99.753a58.714,58.714,0,0,0-15,17.965A58.714,58.714,0,0,0,65,99.753,61.156,61.156,0,0,0,59.756,96,61.156,61.156,0,0,0,65,92.247,58.714,58.714,0,0,0,80,74.282,58.714,58.714,0,0,0,95,92.247,61.156,61.156,0,0,0,100.244,96,61.156,61.156,0,0,0,95,99.753Z"/></svg>
